<?xml version="1.0" standalone="no"?>
<!DOCTYPE svg PUBLIC "-//W3C//DTD SVG 20010904//EN"
 "http://www.w3.org/TR/2001/REC-SVG-20010904/DTD/svg10.dtd">
<svg version="1.0" xmlns="http://www.w3.org/2000/svg"
 width="940.000000pt" height="101.000000pt" viewBox="0 0 940.000000 101.000000"
 preserveAspectRatio="xMidYMid meet">

<g transform="translate(0.000000,101.000000) scale(0.100000,-0.100000)"
fill="#000000" stroke="none">
<path d="M0 990 c0 -11 6 -30 13 -41 10 -17 9 -23 -1 -26 -9 -4 -12 -106 -12
-464 l0 -459 4700 0 4700 0 0 495 0 495 -4675 0 c-3110 0 -4675 3 -4675 10 0
6 -11 10 -25 10 -18 0 -25 -5 -25 -20z m824 -95 c51 0 43 -69 -8 -71 -25 -1
-26 1 -25 55 1 32 4 48 7 36 4 -11 16 -20 26 -20z m186 -14 c0 -39 4 -51 18
-54 9 -3 -1 -5 -23 -5 -22 0 -32 2 -22 5 13 3 17 15 17 48 0 33 -4 45 -17 48
-14 4 -12 5 5 6 20 1 22 -3 22 -48z m424 -13 c-3 -5 -1 -15 5 -22 9 -10 8 -15
-4 -20 -12 -4 -15 4 -14 52 1 49 2 53 9 28 5 -16 7 -33 4 -38z m450 0 c-3 -5
-1 -15 5 -22 9 -10 8 -15 -4 -20 -12 -4 -15 4 -14 52 1 49 2 53 9 28 5 -16 7
-33 4 -38z m455 22 c4 -3 1 -21 -6 -40 -12 -35 -12 -35 -11 25 0 33 3 51 5 40
3 -11 8 -22 12 -25z m540 0 c4 -3 1 -21 -6 -40 -12 -35 -12 -35 -11 25 0 33 3
51 5 40 3 -11 8 -22 12 -25z m201 -9 c0 -39 4 -51 18 -54 9 -3 -1 -5 -23 -5
-22 0 -32 2 -22 5 13 3 17 15 17 48 0 25 -5 45 -12 48 -8 3 -6 6 5 6 14 1 17
-8 17 -48z m2982 31 c-16 -5 -15 -22 2 -41 13 -14 12 -19 -3 -37 -14 -17 -19
-19 -29 -7 -8 7 -9 13 -2 13 15 0 12 21 -7 43 -17 18 -17 19 1 32 10 8 25 11
34 7 10 -4 12 -7 4 -10z m795 -94 c-2 -24 -4 -7 -4 37 0 44 2 63 4 43 2 -21 2
-57 0 -80z m651 105 c-10 -2 -18 -9 -18 -14 0 -5 8 -10 18 -10 16 -1 16 -2 0
-6 -13 -3 -19 -16 -20 -41 l-1 -37 -4 38 c-3 26 -9 37 -21 38 -15 1 -15 2 1 6
9 2 17 11 17 19 0 8 9 14 23 13 16 -1 18 -2 5 -6z m246 -28 c51 0 43 -69 -8
-71 -25 -1 -26 1 -25 55 1 32 4 48 7 36 4 -11 16 -20 26 -20z m186 -14 c0 -39
4 -51 18 -54 9 -3 -1 -5 -23 -5 -22 0 -32 2 -22 5 13 3 17 15 17 48 0 33 -4
45 -17 48 -14 4 -12 5 5 6 20 1 22 -3 22 -48z m-7832 8 c-8 -22 -8 -41 0 -68
10 -32 10 -34 -3 -17 -17 23 -19 69 -5 97 16 29 20 23 8 -12z m455 24 c-13 -2
-23 -11 -23 -19 0 -8 10 -15 23 -15 l22 -2 -22 -4 c-16 -3 -23 -11 -23 -29 0
-13 -4 -24 -10 -24 -5 0 -10 23 -10 50 l0 50 33 -1 c23 -1 26 -3 10 -6z m187
-16 c12 -4 11 -6 -2 -6 -12 -1 -18 -9 -18 -26 0 -13 8 -29 18 -35 15 -10 15
-10 -3 -8 -14 2 -21 12 -23 36 -2 17 -8 32 -13 32 -5 0 -4 6 3 14 7 8 15 10
18 6 3 -4 12 -10 20 -13z m355 -42 c0 -24 -6 -50 -14 -57 -11 -11 -12 -9 -5
12 4 14 8 34 8 45 0 11 -4 31 -8 45 -7 21 -6 23 5 12 8 -7 14 -33 14 -57z
m545 42 c12 -4 11 -6 -2 -6 -21 -1 -25 -40 -5 -60 10 -10 9 -11 -5 -6 -14 6
-18 18 -18 54 0 25 4 41 8 35 4 -6 14 -14 22 -17z m6030 0 c12 -4 11 -6 -2 -6
-12 -1 -18 -9 -18 -26 0 -13 8 -29 18 -35 15 -10 15 -10 -3 -8 -14 2 -21 12
-23 36 -2 17 -8 32 -13 32 -5 0 -4 6 3 14 7 8 15 10 18 6 3 -4 12 -10 20 -13z
m353 16 c-30 -6 -29 -27 2 -41 14 -6 25 -16 25 -21 0 -16 -29 -33 -47 -28 -14
4 -13 5 5 6 28 1 29 24 0 43 -27 18 -18 49 14 47 l23 -2 -22 -4z m-7826 -44
c8 18 16 31 19 29 7 -7 -25 -78 -35 -78 -5 0 -12 11 -15 24 -3 13 -8 32 -11
43 -3 10 2 2 11 -17 l17 -35 14 34z m101 19 c20 -20 14 -28 -19 -28 -36 0 -35
-21 2 -31 21 -6 21 -7 3 -8 -24 -1 -44 17 -44 39 0 18 19 40 35 40 6 0 16 -5
23 -12z m94 0 c11 -18 10 -68 -2 -68 -5 0 -10 16 -10 35 0 43 -27 49 -36 8
-10 -48 -12 -49 -13 -8 -1 37 1 41 26 43 15 1 30 -4 35 -10z m75 -19 c8 18 16
31 19 29 7 -7 -25 -78 -35 -78 -5 0 -12 11 -15 24 -3 13 -8 32 -11 43 -3 10 2
2 11 -17 l17 -35 14 34z m156 -38 c10 -11 9 -13 -3 -9 -10 3 -15 19 -16 44 -1
29 -1 32 3 9 3 -16 10 -36 16 -44z m305 57 c17 -17 15 -43 -4 -59 -31 -26 -70
25 -44 56 15 18 32 19 48 3z m332 1 c0 -5 6 -7 13 -3 10 6 10 4 0 -7 -7 -7
-13 -21 -13 -30 0 -10 6 -20 13 -22 6 -3 -1 -5 -18 -5 -16 0 -24 2 -17 5 6 2
12 17 12 33 0 16 -6 31 -12 33 -8 3 -6 6 5 6 9 1 17 -4 17 -10z m130 -24 c0
-12 -26 -45 -36 -45 -2 0 1 9 8 20 10 16 10 24 0 41 -12 19 -11 19 8 9 11 -6
20 -17 20 -25z m180 0 c0 -12 -26 -45 -36 -45 -2 0 1 9 8 20 10 16 10 24 0 41
-12 19 -11 19 8 9 11 -6 20 -17 20 -25z m165 25 c3 -6 -1 -7 -9 -4 -21 8 -32
-23 -18 -47 10 -15 9 -17 -3 -13 -18 7 -20 60 -2 67 19 8 25 8 32 -3z m55 -10
c-8 -15 -7 -26 1 -42 11 -21 11 -22 -4 -9 -20 16 -22 42 -5 59 17 17 20 15 8
-8z m50 -19 c0 -39 -20 -71 -43 -71 -7 0 -4 5 6 11 11 7 17 22 17 48 0 33 6
51 17 51 2 0 3 -18 3 -39z m255 29 c3 -6 -1 -7 -9 -4 -21 8 -32 -23 -18 -47
10 -15 9 -17 -3 -13 -18 7 -20 60 -2 67 19 8 25 8 32 -3z m180 0 c3 -6 -1 -7
-9 -4 -21 8 -32 -23 -18 -47 10 -15 9 -17 -3 -13 -18 7 -20 60 -2 67 19 8 25
8 32 -3z m245 -1 c0 -5 6 -7 13 -3 10 6 10 4 0 -7 -7 -7 -13 -21 -13 -30 0
-10 6 -20 13 -22 6 -3 -1 -5 -18 -5 -16 0 -24 2 -17 5 6 2 12 17 12 33 0 16
-6 31 -12 33 -8 3 -6 6 5 6 9 1 17 -4 17 -10z m90 0 c0 -5 6 -7 13 -3 10 6 10
4 0 -7 -7 -7 -13 -21 -13 -30 0 -10 6 -20 13 -22 6 -3 -1 -5 -18 -5 -16 0 -24
2 -17 5 6 2 12 17 12 33 0 16 -6 31 -12 33 -8 3 -6 6 5 6 9 1 17 -4 17 -10z
m130 -24 c0 -12 -26 -45 -36 -45 -2 0 1 9 8 20 10 16 10 24 0 41 -12 19 -11
19 8 9 11 -6 20 -17 20 -25z m75 25 c3 -6 -1 -7 -9 -4 -21 8 -32 -23 -18 -47
10 -15 9 -17 -3 -13 -18 7 -20 60 -2 67 19 8 25 8 32 -3z m150 -61 c8 -12 6
-12 -8 0 -10 8 -17 26 -16 45 l1 31 7 -31 c4 -17 12 -37 16 -45z m45 31 c0
-28 -4 -38 -13 -34 -8 3 -11 17 -9 39 6 48 22 44 22 -5z m180 5 c0 -12 -26
-45 -36 -45 -2 0 1 9 8 20 10 16 10 24 0 41 -12 19 -11 19 8 9 11 -6 20 -17
20 -25z m3054 13 c14 -23 -3 -53 -30 -53 -12 0 -21 -9 -25 -25 -4 -16 -7 -3
-8 36 -1 60 0 61 25 60 15 -1 32 -9 38 -18z m69 15 c-29 -5 -30 -20 -2 -28 27
-9 21 -40 -9 -41 -19 -1 -19 -1 -2 3 26 6 25 17 -2 35 -25 17 -17 39 15 37 22
-2 22 -2 0 -6z m195 -34 c3 -34 1 -36 -25 -35 -38 1 -44 33 -9 42 32 8 34 21
4 27 -20 5 -20 5 2 4 21 -2 25 -8 28 -38z m60 -27 c16 -13 15 -14 -3 -10 -16
2 -20 12 -21 43 -1 28 0 31 3 10 2 -16 12 -36 21 -43z m42 27 c0 -24 -4 -38
-10 -34 -5 3 -10 22 -10 41 0 19 5 34 10 34 6 0 10 -18 10 -41z m46 24 c12
-17 13 -17 19 0 4 9 12 17 18 17 5 0 3 -8 -6 -18 -15 -16 -15 -20 -1 -40 8
-12 11 -22 6 -22 -6 0 -13 7 -16 16 -6 15 -8 15 -28 -2 -21 -19 -21 -19 -7 4
11 18 11 26 1 42 -15 25 -4 27 14 3z m404 -28 c0 -50 -19 -79 -46 -72 -17 4
-16 5 4 6 27 1 30 31 3 31 -22 0 -35 30 -26 60 5 15 14 20 36 18 27 -2 29 -5
29 -43z m77 34 c-20 -12 -23 -55 -4 -62 6 -3 -4 -5 -23 -5 -19 0 -29 2 -22 5
6 2 12 17 12 33 0 16 -6 30 -12 33 -7 2 5 5 26 5 31 0 36 -2 23 -9z m91 -1
c20 -20 14 -28 -19 -28 -36 0 -35 -21 2 -31 21 -6 21 -7 4 -8 -25 -1 -45 17
-45 39 0 18 19 40 35 40 6 0 16 -5 23 -12z m96 -10 c14 -23 -3 -53 -30 -53
-12 0 -21 -9 -25 -25 -4 -16 -7 -3 -8 36 -1 60 0 61 25 60 15 -1 32 -9 38 -18z
m234 -46 c16 -13 15 -14 -3 -10 -16 2 -20 12 -21 43 -1 28 0 31 3 10 2 -16 12
-36 21 -43z m42 27 c0 -24 -4 -38 -10 -34 -5 3 -10 22 -10 41 0 19 5 34 10 34
6 0 10 -18 10 -41z m258 29 c17 -17 15 -43 -4 -59 -31 -26 -70 25 -44 56 15
18 32 19 48 3z m255 2 c-14 -6 -23 -18 -23 -30 0 -12 9 -24 23 -30 22 -9 22
-9 1 -9 -12 -1 -27 6 -34 14 -19 23 2 65 32 64 l23 0 -22 -9z m104 -1 c-20
-12 -23 -55 -4 -62 6 -3 -4 -5 -23 -5 -19 0 -29 2 -22 5 6 2 12 17 12 33 0 16
-6 30 -12 33 -7 2 5 5 26 5 31 0 36 -2 23 -9z m91 -30 c3 -34 1 -36 -25 -35
-38 1 -44 33 -9 42 32 8 34 21 4 27 -20 5 -20 5 2 4 21 -2 25 -8 28 -38z m96
19 c14 -23 -3 -53 -30 -53 -12 0 -21 -9 -25 -25 -4 -16 -7 -3 -8 36 -1 60 0
61 25 60 15 -1 32 -9 38 -18z m90 0 c14 -23 -3 -53 -30 -53 -12 0 -21 -9 -25
-25 -4 -16 -7 -3 -8 36 -1 60 0 61 25 60 15 -1 32 -9 38 -18z m84 10 c20 -20
14 -28 -19 -28 -36 0 -35 -21 2 -31 21 -6 21 -7 4 -8 -25 -1 -45 17 -45 39 0
18 19 40 35 40 6 0 16 -5 23 -12z m89 1 c-20 -12 -23 -55 -4 -62 6 -3 -4 -5
-23 -5 -19 0 -29 2 -22 5 6 2 12 17 12 33 0 16 -6 30 -12 33 -7 2 5 5 26 5 31
0 36 -2 23 -9z m187 -11 c14 -23 -3 -53 -30 -53 -12 0 -21 -9 -25 -25 -4 -16
-7 -3 -8 36 -1 60 0 61 25 60 15 -1 32 -9 38 -18z m75 -8 c6 18 13 31 16 28 5
-5 -24 -86 -38 -105 -5 -7 -14 -13 -20 -13 -6 0 -3 6 8 13 15 12 16 19 8 43
-23 62 -24 68 -5 35 l19 -34 12 33z m-7592 -10 c0 -16 -4 -27 -9 -24 -10 6
-11 38 -1 47 9 10 10 10 10 -23z m138 0 c0 -13 -4 -25 -10 -27 -5 -1 -10 11
-10 27 0 17 5 29 10 27 6 -2 10 -14 10 -27z m42 0 c0 -16 -4 -27 -9 -24 -10 6
-11 38 -1 47 9 10 10 10 10 -23z m408 0 c0 -13 -4 -25 -10 -27 -5 -1 -10 11
-10 27 0 17 5 29 10 27 6 -2 10 -14 10 -27z m77 2 c4 -13 -1 -18 -16 -20 -15
-1 -17 1 -7 7 8 5 11 16 8 26 -4 9 -3 14 2 11 5 -3 11 -14 13 -24z m188 -2 c0
-16 -4 -30 -10 -30 -5 0 -7 7 -4 15 4 8 1 15 -5 15 -8 0 -8 4 1 15 18 19 18
19 18 -15z m190 -11 c0 -16 -4 -29 -10 -29 -5 0 -10 16 -10 36 0 21 4 33 10
29 6 -3 10 -19 10 -36z m80 11 c0 -16 -4 -30 -10 -30 -5 0 -7 7 -4 15 4 8 1
15 -5 15 -8 0 -8 4 1 15 18 19 18 19 18 -15z m227 0 c0 -16 -4 -27 -9 -24 -10
6 -11 38 -1 47 9 10 10 10 10 -23z m233 -11 c0 -16 -4 -29 -10 -29 -5 0 -10
16 -10 36 0 21 4 33 10 29 6 -3 10 -19 10 -36z m217 11 c0 -16 -4 -27 -9 -24
-10 6 -11 38 -1 47 9 10 10 10 10 -23z m-990 -15 c0 -8 -4 -15 -9 -15 -10 0
-11 14 -1 23 9 10 10 9 10 -8z m270 0 c0 -8 -4 -15 -9 -15 -10 0 -11 14 -1 23
9 10 10 9 10 -8z m-1747 -15 c0 -5 -2 -10 -4 -10 -3 0 -8 5 -11 10 -3 6 -1 10
4 10 6 0 11 -4 11 -10z m1327 -16 c-3 -3 -12 -4 -19 -1 -8 3 -5 6 6 6 11 1 17
-2 13 -5z m4389 -127 c8 3 21 0 29 -7 17 -14 21 -70 5 -70 -5 0 -10 16 -10 35
0 43 -27 49 -36 8 -11 -50 -12 -49 -12 12 0 33 3 50 5 38 3 -14 9 -20 19 -16z
m-5386 -21 c0 -34 4 -46 18 -49 9 -3 1 -5 -18 -5 -19 0 -29 2 -22 5 15 6 16
73 1 73 -5 0 -7 5 -4 10 14 23 25 7 25 -34z m93 37 c-25 -5 -32 -23 -8 -23 8
0 19 -8 24 -18 13 -24 -4 -52 -32 -51 l-22 0 23 9 c27 12 29 40 2 47 -11 3
-20 14 -20 24 0 14 7 19 28 18 23 -2 24 -2 5 -6z m117 3 c0 -12 -43 -97 -47
-93 -2 3 3 19 11 36 22 41 20 49 -11 54 -23 3 -21 4 10 6 20 0 37 -1 37 -3z
m76 -29 c1 -15 4 -30 7 -34 11 -10 -14 -33 -35 -33 -23 0 -34 25 -19 44 9 10
9 16 1 21 -8 5 -8 11 1 21 19 23 44 12 45 -19z m104 29 c0 -12 -43 -97 -47
-93 -2 3 3 19 11 36 22 41 20 49 -11 54 -23 3 -21 4 10 6 20 0 37 -1 37 -3z
m60 -7 l-24 -10 24 -12 c29 -14 33 -45 8 -60 -12 -8 -21 -7 -32 2 -31 26 -12
91 27 90 21 0 21 -1 -3 -10z m289 -3 c17 -20 10 -67 -11 -79 -23 -15 -48 8
-48 42 0 45 35 66 59 37z m179 2 c28 -28 2 -89 -36 -87 -12 0 -11 3 6 9 28 12
28 28 0 32 -26 3 -37 36 -16 49 18 12 32 11 46 -3z m271 -2 c17 -20 10 -67
-11 -79 -23 -15 -48 8 -48 42 0 45 35 66 59 37z m161 -30 c0 -34 4 -46 18 -49
9 -3 1 -5 -18 -5 -19 0 -29 2 -22 5 15 6 16 73 1 73 -5 0 -7 5 -4 10 14 23 25
7 25 -34z m290 -16 c5 -3 2 -14 -6 -24 -12 -17 -14 -18 -14 -3 0 10 -8 17 -20
17 -25 0 -25 5 3 43 l22 32 3 -30 c2 -16 8 -32 12 -35z m89 46 c17 -20 10 -67
-11 -79 -23 -15 -48 8 -48 42 0 45 35 66 59 37z m86 -11 c1 -11 4 -26 9 -33 4
-7 2 -19 -4 -27 -14 -16 -46 -20 -54 -6 -3 4 6 6 19 3 20 -3 25 0 25 17 0 13
-7 21 -17 22 -17 1 -17 2 0 6 24 6 21 31 -5 36 -20 5 -20 5 2 4 18 -2 25 -8
25 -22z m75 14 l-24 -10 24 -12 c29 -14 33 -45 8 -60 -12 -8 -21 -7 -32 2 -31
26 -12 91 27 90 21 0 21 -1 -3 -10z m109 -3 c17 -20 10 -67 -11 -79 -23 -15
-48 8 -48 42 0 45 35 66 59 37z m179 -9 c2 -11 -6 -29 -18 -42 l-22 -23 28 -5
c24 -3 21 -4 -10 -6 l-40 -1 27 28 c36 38 37 67 1 58 -17 -5 -23 -3 -19 4 11
17 49 7 53 -13z m90 11 c28 -28 2 -89 -36 -87 -12 0 -11 3 6 9 28 12 28 28 0
32 -26 3 -37 36 -16 49 18 12 32 11 46 -3z m91 -2 c17 -20 10 -67 -11 -79 -23
-15 -48 8 -48 42 0 45 35 66 59 37z m89 2 c28 -28 2 -89 -36 -87 -12 0 -11 3
6 9 28 12 28 28 0 32 -26 3 -37 36 -16 49 18 12 32 11 46 -3z m90 -11 c2 -11
-6 -29 -18 -42 l-22 -23 28 -5 c24 -3 21 -4 -10 -6 l-40 -1 27 28 c36 38 37
67 1 58 -17 -5 -23 -3 -19 4 11 17 49 7 53 -13z m262 0 c12 -4 11 -6 -2 -6
-24 -1 -24 -46 0 -61 15 -10 15 -10 -3 -8 -14 2 -21 12 -23 36 -2 17 -8 32
-13 32 -5 0 -4 6 3 14 7 8 15 10 18 6 3 -4 12 -10 20 -13z m181 1 c-5 -13 -14
-36 -20 -52 -7 -16 -14 -27 -17 -24 -5 6 32 98 40 98 3 0 2 -10 -3 -22z m98 8
c17 -20 10 -67 -11 -79 -23 -15 -48 8 -48 42 0 45 35 66 59 37z m434 7 c-30
-6 -29 -27 2 -41 14 -6 25 -16 25 -21 0 -16 -29 -33 -47 -28 -14 4 -13 5 5 6
28 1 29 24 0 43 -27 18 -18 49 14 47 l23 -2 -22 -4z m466 -7 c17 -20 10 -67
-11 -79 -23 -15 -48 8 -48 42 0 45 35 66 59 37z m90 0 c17 -20 10 -67 -11 -79
-23 -15 -48 8 -48 42 0 45 35 66 59 37z m164 7 c-25 -5 -32 -23 -8 -23 8 0 19
-8 24 -18 13 -24 -4 -52 -32 -51 l-22 0 23 9 c27 12 29 40 2 47 -11 3 -20 14
-20 24 0 14 7 19 28 18 23 -2 24 -2 5 -6z m105 -5 c28 -28 2 -89 -36 -87 -12
0 -11 3 6 9 28 12 28 28 0 32 -26 3 -37 36 -16 49 18 12 32 11 46 -3z m361 -2
c17 -20 10 -67 -11 -79 -23 -15 -48 8 -48 42 0 45 35 66 59 37z m180 0 c17
-20 10 -67 -11 -79 -23 -15 -48 8 -48 42 0 45 35 66 59 37z m90 0 c17 -20 10
-67 -11 -79 -23 -15 -48 8 -48 42 0 45 35 66 59 37z m351 -9 c12 -4 11 -6 -2
-6 -12 -1 -18 -9 -18 -26 0 -13 8 -29 18 -35 15 -10 15 -10 -3 -8 -14 2 -21
12 -23 36 -2 17 -8 32 -13 32 -5 0 -4 6 3 14 7 8 15 10 18 6 3 -4 12 -10 20
-13z m365 -2 c1 -11 4 -26 9 -33 4 -7 2 -19 -4 -27 -14 -16 -46 -20 -54 -6 -3
4 6 6 19 3 20 -3 25 0 25 17 0 13 -7 21 -17 22 -17 1 -17 2 0 6 24 6 21 31 -5
36 -20 5 -20 5 2 4 18 -2 25 -8 25 -22z m-2961 -17 c14 -23 -3 -53 -30 -53
-12 0 -21 -9 -25 -25 -4 -16 -7 -3 -8 36 -1 60 0 61 25 60 15 -1 32 -9 38 -18z
m159 15 c-29 -5 -30 -20 -2 -28 27 -9 21 -40 -9 -41 -19 -1 -19 -1 -2 3 26 6
25 17 -2 35 -25 17 -17 39 15 37 22 -2 22 -2 0 -6z m2271 -15 c14 -23 -3 -53
-30 -53 -12 0 -21 -9 -25 -25 -4 -16 -7 -3 -8 36 -1 60 0 61 25 60 15 -1 32
-9 38 -18z m75 -8 c6 18 13 31 16 28 5 -5 -24 -86 -38 -105 -5 -7 -14 -13 -20
-13 -6 0 -3 6 8 13 15 12 16 19 8 43 -23 62 -24 68 -5 35 l19 -34 12 33z m279
18 c17 -17 15 -43 -4 -59 -31 -26 -70 25 -44 56 15 18 32 19 48 3z m94 0 c11
-18 10 -68 -2 -68 -5 0 -10 16 -10 35 0 43 -27 49 -36 8 -10 -48 -12 -49 -13
-8 -1 37 1 41 26 43 15 1 30 -4 35 -10z m338 -217 c0 -39 4 -51 18 -54 9 -3
-1 -5 -23 -5 -22 0 -32 2 -22 5 13 3 17 15 17 48 0 33 -4 45 -17 48 -14 4 -12
5 5 6 20 1 22 -3 22 -48z m-5927 -53 c7 -4 -1 -7 -18 -7 -16 0 -24 3 -17 6 6
2 12 20 12 39 0 20 -5 34 -12 34 -9 0 -8 4 2 10 12 8 16 2 18 -33 2 -23 9 -45
15 -49z m90 85 c-7 -2 -21 -2 -30 0 -10 3 -4 5 12 5 17 0 24 -2 18 -5z m94 -9
c3 -8 1 -20 -5 -26 -8 -8 -9 -5 -5 11 4 15 1 21 -11 21 -9 0 -16 -7 -16 -16 0
-8 -5 -12 -10 -9 -8 5 -7 11 1 21 15 19 38 18 46 -2z m91 4 c7 -7 12 -19 11
-27 0 -11 -2 -12 -6 -3 -4 9 -8 10 -18 2 -11 -9 -12 -7 -8 11 4 16 2 20 -8 17
-7 -2 -16 -15 -20 -29 -6 -21 -7 -21 -8 -3 -1 22 16 44 34 44 6 0 16 -5 23
-12z m85 5 c3 -5 -8 -8 -24 -9 -15 -1 -26 3 -23 7 6 11 41 12 47 2z m97 -53
c5 -3 2 -14 -6 -24 -12 -17 -14 -18 -14 -3 0 10 -8 17 -20 17 -25 0 -25 5 3
43 l22 32 3 -30 c2 -16 8 -32 12 -35z m269 46 c17 -20 10 -67 -11 -79 -23 -15
-48 8 -48 42 0 45 35 66 59 37z m180 0 c17 -20 10 -67 -11 -79 -23 -15 -48 8
-48 42 0 45 35 66 59 37z m270 0 c17 -20 10 -67 -11 -79 -23 -15 -48 8 -48 42
0 45 35 66 59 37z m180 0 c17 -20 10 -67 -11 -79 -23 -15 -48 8 -48 42 0 45
35 66 59 37z m341 3 l-24 -10 24 -12 c29 -14 33 -45 8 -60 -12 -8 -21 -7 -32
2 -31 26 -12 91 27 90 21 0 21 -1 -3 -10z m90 0 l-24 -10 24 -12 c29 -14 33
-45 8 -60 -12 -8 -21 -7 -32 2 -31 26 -12 91 27 90 21 0 21 -1 -3 -10z m106
-22 c1 -15 4 -30 7 -34 11 -10 -14 -33 -35 -33 -23 0 -34 25 -19 44 9 10 9 16
1 21 -8 5 -8 11 1 21 19 23 44 12 45 -19z m94 -27 c5 -3 2 -14 -6 -24 -12 -17
-14 -18 -14 -3 0 10 -8 17 -20 17 -25 0 -25 5 3 43 l22 32 3 -30 c2 -16 8 -32
12 -35z m268 37 c2 -11 -6 -29 -18 -42 l-22 -23 28 -5 c24 -3 21 -4 -10 -6
l-40 -1 27 28 c36 38 37 67 1 58 -17 -5 -23 -3 -19 4 11 17 49 7 53 -13z m87
-2 c1 -11 4 -26 9 -33 4 -7 2 -19 -4 -27 -14 -16 -46 -20 -54 -6 -3 4 6 6 19
3 20 -3 25 0 25 17 0 13 -7 21 -17 22 -17 1 -17 2 0 6 24 6 21 31 -5 36 -20 5
-20 5 2 4 18 -2 25 -8 25 -22z m94 11 c17 -20 10 -67 -11 -79 -23 -15 -48 8
-48 42 0 45 35 66 59 37z m91 -46 c5 -3 2 -14 -6 -24 -12 -17 -14 -18 -14 -3
0 10 -8 17 -20 17 -25 0 -25 5 3 43 l22 32 3 -30 c2 -16 8 -32 12 -35z m260
37 c12 -4 11 -6 -2 -6 -24 -1 -24 -46 0 -61 15 -10 15 -10 -3 -8 -14 2 -21 12
-23 36 -2 17 -8 32 -13 32 -5 0 -4 6 3 14 7 8 15 10 18 6 3 -4 12 -10 20 -13z
m181 1 c-5 -13 -14 -36 -20 -52 -7 -16 -14 -27 -17 -24 -5 6 32 98 40 98 3 0
2 -10 -3 -22z m98 8 c17 -20 10 -67 -11 -79 -23 -15 -48 8 -48 42 0 45 35 66
59 37z m434 7 c-30 -6 -29 -27 2 -41 14 -6 25 -16 25 -21 0 -16 -29 -33 -47
-28 -14 4 -13 5 5 6 28 1 29 24 0 43 -27 18 -18 49 14 47 l23 -2 -22 -4z m466
-7 c17 -20 10 -67 -11 -79 -23 -15 -48 8 -48 42 0 45 35 66 59 37z m90 0 c17
-20 10 -67 -11 -79 -23 -15 -48 8 -48 42 0 45 35 66 59 37z m164 7 c-25 -5
-32 -23 -8 -23 8 0 19 -8 24 -18 13 -24 -4 -52 -32 -51 l-22 0 23 9 c27 12 29
40 2 47 -11 3 -20 14 -20 24 0 14 7 19 28 18 23 -2 24 -2 5 -6z m105 -5 c28
-28 2 -89 -36 -87 -12 0 -11 3 6 9 28 12 28 28 0 32 -26 3 -37 36 -16 49 18
12 32 11 46 -3z m361 -2 c17 -20 10 -67 -11 -79 -23 -15 -48 8 -48 42 0 45 35
66 59 37z m180 0 c17 -20 10 -67 -11 -79 -23 -15 -48 8 -48 42 0 45 35 66 59
37z m90 0 c17 -20 10 -67 -11 -79 -23 -15 -48 8 -48 42 0 45 35 66 59 37z
m1521 -9 c12 -4 11 -6 -2 -6 -12 -1 -18 -9 -18 -26 0 -13 8 -29 18 -35 15 -10
15 -10 -3 -8 -14 2 -21 12 -23 36 -2 17 -8 32 -13 32 -5 0 -4 6 3 14 7 8 15
10 18 6 3 -4 12 -10 20 -13z m-2872 -18 c15 -1 15 -2 0 -6 -10 -2 -19 -12 -19
-21 -1 -15 -2 -15 -6 1 -2 9 -12 18 -21 18 -15 1 -15 2 1 6 9 2 18 12 18 21 1
15 2 15 6 0 2 -10 12 -19 21 -19z m-894 -1 c14 -23 -3 -53 -30 -53 -12 0 -21
-9 -25 -25 -4 -16 -7 -3 -8 36 -1 60 0 61 25 60 15 -1 32 -9 38 -18z m159 15
c-29 -5 -30 -20 -2 -28 27 -9 21 -40 -9 -41 -19 -1 -19 -1 -2 3 26 6 25 17 -2
35 -25 17 -17 39 15 37 22 -2 22 -2 0 -6z m2277 -38 c0 -50 -19 -79 -46 -72
-17 4 -16 5 4 6 27 1 30 31 3 31 -22 0 -35 30 -26 60 5 15 14 20 36 18 27 -2
29 -5 29 -43z m77 34 c-20 -12 -23 -55 -4 -62 6 -3 -4 -5 -23 -5 -19 0 -29 2
-22 5 6 2 12 17 12 33 0 16 -6 30 -12 33 -7 2 5 5 26 5 31 0 36 -2 23 -9z m91
-1 c20 -20 14 -28 -19 -28 -36 0 -35 -21 2 -31 21 -6 21 -7 4 -8 -25 -1 -45
17 -45 39 0 18 19 40 35 40 6 0 16 -5 23 -12z m96 -10 c14 -23 -3 -53 -30 -53
-12 0 -21 -9 -25 -25 -4 -16 -7 -3 -8 36 -1 60 0 61 25 60 15 -1 32 -9 38 -18z
m339 12 c-14 -6 -23 -18 -23 -30 0 -12 9 -24 23 -30 22 -9 22 -9 1 -9 -12 -1
-27 6 -34 14 -19 23 2 65 32 64 l23 0 -22 -9z m105 -2 c17 -17 15 -43 -4 -59
-31 -26 -70 25 -44 56 15 18 32 19 48 3z m180 0 c17 -17 15 -43 -4 -59 -31
-26 -70 25 -44 56 15 18 32 19 48 3z m89 1 c-20 -12 -23 -55 -4 -62 6 -3 -4
-5 -23 -5 -19 0 -29 2 -22 5 6 2 12 17 12 33 0 16 -6 30 -12 33 -7 2 5 5 26 5
31 0 36 -2 23 -9z m181 -30 c3 -34 1 -36 -25 -35 -38 1 -44 33 -9 42 32 8 34
21 4 27 -20 5 -20 5 2 4 21 -2 25 -8 28 -38z m60 -27 c16 -13 15 -14 -3 -10
-16 2 -20 12 -21 43 -1 28 0 31 3 10 2 -16 12 -36 21 -43z m42 27 c0 -24 -4
-38 -10 -34 -5 3 -10 22 -10 41 0 19 5 34 10 34 6 0 10 -18 10 -41z m168 29
c17 -17 15 -43 -4 -59 -31 -26 -70 25 -44 56 15 18 32 19 48 3z m-6488 -13 c7
-9 10 -18 6 -22 -3 -3 -6 -1 -6 6 0 6 -10 16 -22 21 -16 6 -18 9 -7 9 9 1 22
-6 29 -14z m261 -19 l-23 -24 28 -5 c24 -3 22 -4 -9 -6 l-39 -1 29 33 c15 19
30 32 32 30 3 -2 -6 -14 -18 -27z m5867 27 c-10 -2 -28 -2 -40 0 -13 2 -5 4
17 4 22 1 32 -1 23 -4z m-635 -20 c-7 -2 -21 -2 -30 0 -10 3 -4 5 12 5 17 0
24 -2 18 -5z m90 0 c-7 -2 -21 -2 -30 0 -10 3 -4 5 12 5 17 0 24 -2 18 -5z
m-5391 -25 c-7 -7 -12 -8 -12 -2 0 14 12 26 19 19 2 -3 -1 -11 -7 -17z m5936
15 c-10 -2 -28 -2 -40 0 -13 2 -5 4 17 4 22 1 32 -1 23 -4z m-5978 -13 c0 -5
-2 -10 -4 -10 -3 0 -8 5 -11 10 -3 6 -1 10 4 10 6 0 11 -4 11 -10z m-57 -12
c-2 -5 -13 -8 -24 -8 -10 0 -19 3 -19 8 0 4 11 7 24 7 13 0 22 -3 19 -7z
m5067 -163 l0 -105 -45 0 -45 0 0 105 0 105 45 0 45 0 0 -105z m-5446 20 c51
0 43 -69 -8 -71 -25 -1 -26 1 -25 55 1 32 4 48 7 36 4 -11 16 -20 26 -20z
m186 -14 c0 -39 4 -51 18 -54 9 -3 -1 -5 -23 -5 -22 0 -32 2 -22 5 13 3 17 15
17 48 0 33 -4 45 -17 48 -14 4 -12 5 5 6 20 1 22 -3 22 -48z m424 -13 c-3 -5
-1 -15 5 -22 9 -10 8 -15 -4 -20 -12 -4 -15 4 -14 52 1 49 2 53 9 28 5 -16 7
-33 4 -38z m450 0 c-3 -5 -1 -15 5 -22 9 -10 8 -15 -4 -20 -12 -4 -15 4 -14
52 1 49 2 53 9 28 5 -16 7 -33 4 -38z m455 22 c4 -3 1 -21 -6 -40 -12 -35 -12
-35 -11 25 0 33 3 51 5 40 3 -11 8 -22 12 -25z m540 0 c4 -3 1 -21 -6 -40 -12
-35 -12 -35 -11 25 0 33 3 51 5 40 3 -11 8 -22 12 -25z m201 -9 c0 -39 4 -51
18 -54 9 -3 -1 -5 -23 -5 -22 0 -32 2 -22 5 13 3 17 15 17 48 0 25 -5 45 -12
48 -8 3 -6 6 5 6 14 1 17 -8 17 -48z m2982 31 c-16 -5 -15 -22 2 -41 13 -14
12 -19 -3 -37 -14 -17 -19 -19 -29 -7 -8 7 -9 13 -2 13 15 0 12 21 -7 43 -17
18 -17 19 1 32 10 8 25 11 34 7 10 -4 12 -7 4 -10z m-5954 -23 c-8 -22 -8 -41
0 -68 10 -32 10 -34 -3 -17 -17 23 -19 69 -5 97 16 29 20 23 8 -12z m455 24
c-13 -2 -23 -11 -23 -19 0 -8 10 -15 23 -15 l22 -2 -22 -4 c-16 -3 -23 -11
-23 -29 0 -13 -4 -24 -10 -24 -5 0 -10 23 -10 50 l0 50 33 -1 c23 -1 26 -3 10
-6z m187 -16 c12 -4 11 -6 -2 -6 -12 -1 -18 -9 -18 -26 0 -13 8 -29 18 -35 15
-10 15 -10 -3 -8 -14 2 -21 12 -23 36 -2 17 -8 32 -13 32 -5 0 -4 6 3 14 7 8
15 10 18 6 3 -4 12 -10 20 -13z m355 -42 c0 -24 -6 -50 -14 -57 -11 -11 -12
-9 -5 12 4 14 8 34 8 45 0 11 -4 31 -8 45 -7 21 -6 23 5 12 8 -7 14 -33 14
-57z m545 42 c12 -4 11 -6 -2 -6 -21 -1 -25 -40 -5 -60 10 -10 9 -11 -5 -6
-14 6 -18 18 -18 54 0 25 4 41 8 35 4 -6 14 -14 22 -17z m-1443 -28 c8 18 16
31 19 29 7 -7 -25 -78 -35 -78 -5 0 -12 11 -15 24 -3 13 -8 32 -11 43 -3 10 2
2 11 -17 l17 -35 14 34z m101 19 c20 -20 14 -28 -19 -28 -36 0 -35 -21 2 -31
21 -6 21 -7 3 -8 -24 -1 -44 17 -44 39 0 18 19 40 35 40 6 0 16 -5 23 -12z
m94 0 c11 -18 10 -68 -2 -68 -5 0 -10 16 -10 35 0 43 -27 49 -36 8 -10 -48
-12 -49 -13 -8 -1 37 1 41 26 43 15 1 30 -4 35 -10z m75 -19 c8 18 16 31 19
29 7 -7 -25 -78 -35 -78 -5 0 -12 11 -15 24 -3 13 -8 32 -11 43 -3 10 2 2 11
-17 l17 -35 14 34z m161 -37 c16 -13 15 -14 -3 -10 -16 2 -20 12 -21 43 -1 28
0 31 3 10 2 -16 12 -36 21 -43z m42 27 c0 -24 -4 -38 -10 -34 -5 3 -10 22 -10
41 0 19 5 34 10 34 6 0 10 -18 10 -41z m258 29 c17 -17 15 -43 -4 -59 -31 -26
-70 25 -44 56 15 18 32 19 48 3z m332 1 c0 -5 6 -7 13 -3 10 6 10 4 0 -7 -7
-7 -13 -21 -13 -30 0 -10 6 -20 13 -22 6 -3 -1 -5 -18 -5 -16 0 -24 2 -17 5 6
2 12 17 12 33 0 16 -6 31 -12 33 -8 3 -6 6 5 6 9 1 17 -4 17 -10z m130 -24 c0
-12 -26 -45 -36 -45 -2 0 1 9 8 20 10 16 10 24 0 41 -12 19 -11 19 8 9 11 -6
20 -17 20 -25z m180 0 c0 -12 -26 -45 -36 -45 -2 0 1 9 8 20 10 16 10 24 0 41
-12 19 -11 19 8 9 11 -6 20 -17 20 -25z m165 25 c3 -6 -1 -7 -9 -4 -21 8 -32
-23 -18 -47 10 -15 9 -17 -3 -13 -18 7 -20 60 -2 67 19 8 25 8 32 -3z m55 -10
c-8 -15 -7 -26 1 -42 11 -21 11 -22 -4 -9 -20 16 -22 42 -5 59 17 17 20 15 8
-8z m50 -19 c0 -39 -20 -71 -43 -71 -7 0 -4 5 6 11 11 7 17 22 17 48 0 33 6
51 17 51 2 0 3 -18 3 -39z m255 29 c3 -6 -1 -7 -9 -4 -21 8 -32 -23 -18 -47
10 -15 9 -17 -3 -13 -18 7 -20 60 -2 67 19 8 25 8 32 -3z m180 0 c3 -6 -1 -7
-9 -4 -21 8 -32 -23 -18 -47 10 -15 9 -17 -3 -13 -18 7 -20 60 -2 67 19 8 25
8 32 -3z m245 -1 c0 -5 6 -7 13 -3 10 6 10 4 0 -7 -7 -7 -13 -21 -13 -30 0
-10 6 -20 13 -22 6 -3 -1 -5 -18 -5 -16 0 -24 2 -17 5 6 2 12 17 12 33 0 16
-6 31 -12 33 -8 3 -6 6 5 6 9 1 17 -4 17 -10z m90 0 c0 -5 6 -7 13 -3 10 6 10
4 0 -7 -7 -7 -13 -21 -13 -30 0 -10 6 -20 13 -22 6 -3 -1 -5 -18 -5 -16 0 -24
2 -17 5 6 2 12 17 12 33 0 16 -6 31 -12 33 -8 3 -6 6 5 6 9 1 17 -4 17 -10z
m130 -24 c0 -12 -26 -45 -36 -45 -2 0 1 9 8 20 10 16 10 24 0 41 -12 19 -11
19 8 9 11 -6 20 -17 20 -25z m75 25 c3 -6 -1 -7 -9 -4 -21 8 -32 -23 -18 -47
10 -15 9 -17 -3 -13 -18 7 -20 60 -2 67 19 8 25 8 32 -3z m150 -61 c8 -12 6
-12 -8 0 -10 8 -17 26 -16 45 l1 31 7 -31 c4 -17 12 -37 16 -45z m45 31 c0
-28 -4 -38 -13 -34 -8 3 -11 17 -9 39 6 48 22 44 22 -5z m180 5 c0 -12 -26
-45 -36 -45 -2 0 1 9 8 20 10 16 10 24 0 41 -12 19 -11 19 8 9 11 -6 20 -17
20 -25z m-1853 -5 c0 -16 -4 -27 -9 -24 -10 6 -11 38 -1 47 9 10 10 10 10 -23z
m138 0 c0 -13 -4 -25 -10 -27 -5 -1 -10 11 -10 27 0 17 5 29 10 27 6 -2 10
-14 10 -27z m42 0 c0 -16 -4 -27 -9 -24 -10 6 -11 38 -1 47 9 10 10 10 10 -23z
m408 0 c0 -13 -4 -25 -10 -27 -5 -1 -10 11 -10 27 0 17 5 29 10 27 6 -2 10
-14 10 -27z m77 2 c4 -13 -1 -18 -16 -20 -15 -1 -17 1 -7 7 8 5 11 16 8 26 -4
9 -3 14 2 11 5 -3 11 -14 13 -24z m188 -2 c0 -16 -4 -30 -10 -30 -5 0 -7 7 -4
15 4 8 1 15 -5 15 -8 0 -8 4 1 15 18 19 18 19 18 -15z m190 -11 c0 -16 -4 -29
-10 -29 -5 0 -10 16 -10 36 0 21 4 33 10 29 6 -3 10 -19 10 -36z m80 11 c0
-16 -4 -30 -10 -30 -5 0 -7 7 -4 15 4 8 1 15 -5 15 -8 0 -8 4 1 15 18 19 18
19 18 -15z m227 0 c0 -16 -4 -27 -9 -24 -10 6 -11 38 -1 47 9 10 10 10 10 -23z
m233 -11 c0 -16 -4 -29 -10 -29 -5 0 -10 16 -10 36 0 21 4 33 10 29 6 -3 10
-19 10 -36z m217 11 c0 -16 -4 -27 -9 -24 -10 6 -11 38 -1 47 9 10 10 10 10
-23z m-990 -15 c0 -8 -4 -15 -9 -15 -10 0 -11 14 -1 23 9 10 10 9 10 -8z m270
0 c0 -8 -4 -15 -9 -15 -10 0 -11 14 -1 23 9 10 10 9 10 -8z m-420 -31 c-3 -3
-12 -4 -19 -1 -8 3 -5 6 6 6 11 1 17 -2 13 -5z"/>
<path d="M806 875 c-7 -20 3 -45 19 -45 16 0 26 25 19 45 -4 8 -12 15 -19 15
-7 0 -15 -7 -19 -15z"/>
<path d="M6025 901 c-3 -5 -1 -12 5 -16 5 -3 10 1 10 9 0 18 -6 21 -15 7z"/>
<path d="M6051 854 c0 -11 3 -14 6 -6 3 7 2 16 -1 19 -3 4 -6 -2 -5 -13z"/>
<path d="M7736 875 c-7 -20 3 -45 19 -45 7 0 15 7 19 15 7 20 -3 45 -19 45 -7
0 -15 -7 -19 -15z"/>
<path d="M265 880 c-4 -6 5 -10 20 -10 15 0 24 4 20 10 -3 6 -12 10 -20 10 -8
0 -17 -4 -20 -10z"/>
<path d="M894 875 c-8 -21 2 -45 20 -45 7 0 16 7 20 15 8 21 -3 45 -20 45 -8
0 -17 -7 -20 -15z"/>
<path d="M6206 875 c-7 -20 3 -45 19 -45 16 0 29 35 20 50 -9 15 -32 12 -39
-5z"/>
<path d="M6475 851 c-3 -5 -1 -12 5 -16 12 -7 30 2 30 16 0 12 -27 12 -35 0z"/>
<path d="M7014 875 c-9 -21 3 -45 21 -45 10 0 15 10 15 30 0 32 -26 43 -36 15z"/>
<path d="M7195 880 c-4 -6 5 -10 20 -10 15 0 24 4 20 10 -3 6 -12 10 -20 10
-8 0 -17 -4 -20 -10z"/>
<path d="M7286 875 c-7 -20 3 -45 19 -45 16 0 29 35 20 50 -9 15 -32 12 -39
-5z"/>
<path d="M7824 875 c-8 -21 2 -45 20 -45 17 0 28 24 20 45 -4 8 -13 15 -20 15
-8 0 -17 -7 -20 -15z"/>
<path d="M8275 851 c-3 -5 -1 -12 5 -16 12 -7 30 2 30 16 0 12 -27 12 -35 0z"/>
<path d="M8366 875 c-7 -20 3 -45 19 -45 16 0 29 35 20 50 -9 15 -32 12 -39
-5z"/>
<path d="M8456 875 c-7 -20 3 -45 19 -45 16 0 29 35 20 50 -9 15 -32 12 -39
-5z"/>
<path d="M8545 880 c-4 -6 5 -10 20 -10 15 0 24 4 20 10 -3 6 -12 10 -20 10
-8 0 -17 -4 -20 -10z"/>
<path d="M8816 875 c-7 -20 3 -45 19 -45 16 0 29 35 20 50 -9 15 -32 12 -39
-5z"/>
<path d="M1260 685 c0 -8 7 -15 15 -15 8 0 15 7 15 15 0 8 -7 15 -15 15 -8 0
-15 -7 -15 -15z"/>
<path d="M1261 651 c-8 -5 -10 -14 -7 -20 9 -13 33 -15 40 -2 9 14 -18 31 -33
22z"/>
<path d="M1434 652 c1 -20 6 -27 21 -27 27 0 26 35 -1 45 -18 7 -21 5 -20 -18z"/>
<path d="M1707 693 c-4 -3 -7 -15 -7 -26 0 -16 3 -17 15 -7 8 7 15 19 15 26 0
15 -12 19 -23 7z"/>
<path d="M1726 656 c-20 -31 -20 -36 -1 -36 8 0 17 11 21 25 9 36 0 40 -20 11z"/>
<path d="M1884 689 c-9 -15 11 -33 30 -26 9 4 13 13 10 22 -7 17 -30 20 -40 4z"/>
<path d="M2157 693 c-4 -3 -7 -15 -7 -26 0 -16 3 -17 15 -7 8 7 15 19 15 26 0
15 -12 19 -23 7z"/>
<path d="M2176 656 c-20 -31 -20 -36 -1 -36 8 0 17 11 21 25 9 36 0 40 -20 11z"/>
<path d="M2612 670 c-10 -17 -10 -20 3 -20 8 0 15 9 15 20 0 11 -1 20 -3 20
-1 0 -8 -9 -15 -20z"/>
<path d="M2697 693 c-4 -3 -7 -15 -7 -26 0 -16 3 -17 15 -7 8 7 15 19 15 26 0
15 -12 19 -23 7z"/>
<path d="M2716 656 c-20 -31 -20 -36 -1 -36 8 0 17 11 21 25 9 36 0 40 -20 11z"/>
<path d="M2874 652 c1 -20 6 -27 21 -27 27 0 26 35 -1 45 -18 7 -21 5 -20 -18z"/>
<path d="M2967 693 c-4 -3 -7 -15 -7 -26 0 -16 3 -17 15 -7 8 7 15 19 15 26 0
15 -12 19 -23 7z"/>
<path d="M2986 656 c-20 -31 -20 -36 -1 -36 8 0 17 11 21 25 9 36 0 40 -20 11z"/>
<path d="M3234 689 c-9 -15 11 -33 30 -26 9 4 13 13 10 22 -7 17 -30 20 -40 4z"/>
<path d="M3327 693 c-4 -3 -7 -15 -7 -26 0 -16 3 -17 15 -7 8 7 15 19 15 26 0
15 -12 19 -23 7z"/>
<path d="M3346 656 c-20 -31 -20 -36 -1 -36 8 0 17 11 21 25 9 36 0 40 -20 11z"/>
<path d="M3414 689 c-9 -15 11 -33 30 -26 9 4 13 13 10 22 -7 17 -30 20 -40 4z"/>
<path d="M4047 693 c-4 -3 -7 -15 -7 -26 0 -16 3 -17 15 -7 8 7 15 19 15 26 0
15 -12 19 -23 7z"/>
<path d="M4066 656 c-20 -31 -20 -36 -1 -36 8 0 17 11 21 25 9 36 0 40 -20 11z"/>
<path d="M4947 693 c-4 -3 -7 -15 -7 -26 0 -16 3 -17 15 -7 8 7 15 19 15 26 0
15 -12 19 -23 7z"/>
<path d="M4966 656 c-20 -31 -20 -36 -1 -36 8 0 17 11 21 25 9 36 0 40 -20 11z"/>
<path d="M5037 693 c-4 -3 -7 -15 -7 -26 0 -16 3 -17 15 -7 8 7 15 19 15 26 0
15 -12 19 -23 7z"/>
<path d="M5056 656 c-20 -31 -20 -36 -1 -36 8 0 17 11 21 25 9 36 0 40 -20 11z"/>
<path d="M5304 689 c-9 -15 11 -33 30 -26 9 4 13 13 10 22 -7 17 -30 20 -40 4z"/>
<path d="M5667 693 c-4 -3 -7 -15 -7 -26 0 -16 3 -17 15 -7 8 7 15 19 15 26 0
15 -12 19 -23 7z"/>
<path d="M5686 656 c-20 -31 -20 -36 -1 -36 8 0 17 11 21 25 9 36 0 40 -20 11z"/>
<path d="M5847 693 c-4 -3 -7 -15 -7 -26 0 -16 3 -17 15 -7 8 7 15 19 15 26 0
15 -12 19 -23 7z"/>
<path d="M5866 656 c-20 -31 -20 -36 -1 -36 8 0 17 11 21 25 9 36 0 40 -20 11z"/>
<path d="M5937 693 c-4 -3 -7 -15 -7 -26 0 -16 3 -17 15 -7 8 7 15 19 15 26 0
15 -12 19 -23 7z"/>
<path d="M5956 656 c-20 -31 -20 -36 -1 -36 8 0 17 11 21 25 9 36 0 40 -20 11z"/>
<path d="M3686 665 c-7 -20 3 -45 19 -45 16 0 29 35 20 50 -9 15 -32 12 -39
-5z"/>
<path d="M6116 665 c-7 -20 3 -45 19 -45 16 0 29 35 20 50 -9 15 -32 12 -39
-5z"/>
<path d="M6474 665 c-8 -21 2 -45 20 -45 17 0 28 24 20 45 -4 8 -13 15 -20 15
-8 0 -17 -7 -20 -15z"/>
<path d="M1442 460 c-10 -17 -10 -20 3 -20 8 0 15 9 15 20 0 11 -1 20 -3 20
-1 0 -8 -9 -15 -20z"/>
<path d="M1707 483 c-4 -3 -7 -15 -7 -26 0 -16 3 -17 15 -7 8 7 15 19 15 26 0
15 -12 19 -23 7z"/>
<path d="M1726 446 c-20 -31 -20 -36 -1 -36 8 0 17 11 21 25 9 36 0 40 -20 11z"/>
<path d="M1887 483 c-4 -3 -7 -15 -7 -26 0 -16 3 -17 15 -7 8 7 15 19 15 26 0
15 -12 19 -23 7z"/>
<path d="M1906 446 c-20 -31 -20 -36 -1 -36 8 0 17 11 21 25 9 36 0 40 -20 11z"/>
<path d="M2157 483 c-4 -3 -7 -15 -7 -26 0 -16 3 -17 15 -7 8 7 15 19 15 26 0
15 -12 19 -23 7z"/>
<path d="M2176 446 c-20 -31 -20 -36 -1 -36 8 0 17 11 21 25 9 36 0 40 -20 11z"/>
<path d="M2337 483 c-4 -3 -7 -15 -7 -26 0 -16 3 -17 15 -7 8 7 15 19 15 26 0
15 -12 19 -23 7z"/>
<path d="M2356 446 c-20 -31 -20 -36 -1 -36 8 0 17 11 21 25 9 36 0 40 -20 11z"/>
<path d="M2694 442 c1 -20 6 -27 21 -27 27 0 26 35 -1 45 -18 7 -21 5 -20 -18z"/>
<path d="M2784 442 c1 -20 6 -27 21 -27 27 0 26 35 -1 45 -18 7 -21 5 -20 -18z"/>
<path d="M2880 475 c0 -8 7 -15 15 -15 8 0 15 7 15 15 0 8 -7 15 -15 15 -8 0
-15 -7 -15 -15z"/>
<path d="M2881 441 c-8 -5 -10 -14 -7 -20 9 -13 33 -15 40 -2 9 14 -18 31 -33
22z"/>
<path d="M2972 460 c-10 -17 -10 -20 3 -20 8 0 15 9 15 20 0 11 -1 20 -3 20
-1 0 -8 -9 -15 -20z"/>
<path d="M3417 483 c-4 -3 -7 -15 -7 -26 0 -16 3 -17 15 -7 8 7 15 19 15 26 0
15 -12 19 -23 7z"/>
<path d="M3436 446 c-20 -31 -20 -36 -1 -36 8 0 17 11 21 25 9 36 0 40 -20 11z"/>
<path d="M3512 460 c-10 -17 -10 -20 3 -20 8 0 15 9 15 20 0 11 -1 20 -3 20
-1 0 -8 -9 -15 -20z"/>
<path d="M4047 483 c-4 -3 -7 -15 -7 -26 0 -16 3 -17 15 -7 8 7 15 19 15 26 0
15 -12 19 -23 7z"/>
<path d="M4066 446 c-20 -31 -20 -36 -1 -36 8 0 17 11 21 25 9 36 0 40 -20 11z"/>
<path d="M4947 483 c-4 -3 -7 -15 -7 -26 0 -16 3 -17 15 -7 8 7 15 19 15 26 0
15 -12 19 -23 7z"/>
<path d="M4966 446 c-20 -31 -20 -36 -1 -36 8 0 17 11 21 25 9 36 0 40 -20 11z"/>
<path d="M5037 483 c-4 -3 -7 -15 -7 -26 0 -16 3 -17 15 -7 8 7 15 19 15 26 0
15 -12 19 -23 7z"/>
<path d="M5056 446 c-20 -31 -20 -36 -1 -36 8 0 17 11 21 25 9 36 0 40 -20 11z"/>
<path d="M5304 479 c-9 -15 11 -33 30 -26 9 4 13 13 10 22 -7 17 -30 20 -40 4z"/>
<path d="M5667 483 c-4 -3 -7 -15 -7 -26 0 -16 3 -17 15 -7 8 7 15 19 15 26 0
15 -12 19 -23 7z"/>
<path d="M5686 446 c-20 -31 -20 -36 -1 -36 8 0 17 11 21 25 9 36 0 40 -20 11z"/>
<path d="M5847 483 c-4 -3 -7 -15 -7 -26 0 -16 3 -17 15 -7 8 7 15 19 15 26 0
15 -12 19 -23 7z"/>
<path d="M5866 446 c-20 -31 -20 -36 -1 -36 8 0 17 11 21 25 9 36 0 40 -20 11z"/>
<path d="M5937 483 c-4 -3 -7 -15 -7 -26 0 -16 3 -17 15 -7 8 7 15 19 15 26 0
15 -12 19 -23 7z"/>
<path d="M5956 446 c-20 -31 -20 -36 -1 -36 8 0 17 11 21 25 9 36 0 40 -20 11z"/>
<path d="M3686 455 c-7 -20 3 -45 19 -45 16 0 29 35 20 50 -9 15 -32 12 -39
-5z"/>
<path d="M6114 455 c-9 -21 3 -45 21 -45 10 0 15 10 15 30 0 32 -26 43 -36 15z"/>
<path d="M6295 460 c-4 -6 5 -10 20 -10 15 0 24 4 20 10 -3 6 -12 10 -20 10
-8 0 -17 -4 -20 -10z"/>
<path d="M6386 455 c-7 -20 3 -45 19 -45 16 0 29 35 20 50 -9 15 -32 12 -39
-5z"/>
<path d="M6834 455 c-8 -21 2 -45 20 -45 17 0 28 24 20 45 -4 8 -13 15 -20 15
-8 0 -17 -7 -20 -15z"/>
<path d="M7014 455 c-8 -21 2 -45 20 -45 17 0 28 24 20 45 -4 8 -13 15 -20 15
-8 0 -17 -7 -20 -15z"/>
<path d="M7285 431 c-3 -5 -1 -12 5 -16 12 -7 30 2 30 16 0 12 -27 12 -35 0z"/>
<path d="M7554 455 c-8 -21 2 -45 20 -45 17 0 28 24 20 45 -4 8 -13 15 -20 15
-8 0 -17 -7 -20 -15z"/>
<path d="M806 245 c-7 -20 3 -45 19 -45 16 0 26 25 19 45 -4 8 -12 15 -19 15
-7 0 -15 -7 -19 -15z"/>
<path d="M6025 271 c-3 -5 -1 -12 5 -16 5 -3 10 1 10 9 0 18 -6 21 -15 7z"/>
<path d="M6051 224 c0 -11 3 -14 6 -6 3 7 2 16 -1 19 -3 4 -6 -2 -5 -13z"/>
<path d="M265 250 c-4 -6 5 -10 20 -10 15 0 24 4 20 10 -3 6 -12 10 -20 10 -8
0 -17 -4 -20 -10z"/>
<path d="M894 245 c-8 -21 2 -45 20 -45 17 0 28 24 20 45 -4 8 -13 15 -20 15
-8 0 -17 -7 -20 -15z"/>
</g>
</svg>
